<svg xmlns="http://www.w3.org/2000/svg" viewBox="0 0 1200 800">
  <defs>
    <linearGradient id="bg" x1="0%" y1="0%" x2="100%" y2="100%">
      <stop offset="0%" style="stop-color:#f0f4ff;stop-opacity:1" />
      <stop offset="100%" style="stop-color:#e8eeff;stop-opacity:1" />
    </linearGradient>
    <linearGradient id="card" x1="0%" y1="0%" x2="100%" y2="100%">
      <stop offset="0%" style="stop-color:#8b5cf6;stop-opacity:1" />
      <stop offset="100%" style="stop-color:#ec4899;stop-opacity:1" />
    </linearGradient>
  </defs>
  <rect width="1200" height="800" fill="url(#bg)"/>
  <!-- SpeakWise Logo -->
  <circle cx="140" cy="50" r="25" fill="#3b82f6"/>
  <text x="180" y="58" font-family="Arial, sans-serif" font-size="28" font-weight="bold" fill="#1e293b">SpeakWise</text>
  <!-- Hero Text -->
  <text x="100" y="280" font-family="Arial, sans-serif" font-size="56" font-weight="bold" fill="#1e293b">Master Your</text>
  <text x="100" y="350" font-family="Arial, sans-serif" font-size="56" font-weight="bold" fill="#3b82f6">Speaking Skills</text>
  <!-- CTA Buttons -->
  <rect x="100" y="420" width="180" height="50" rx="25" fill="#eab308"/>
  <text x="145" y="452" font-family="Arial, sans-serif" font-size="16" font-weight="bold" fill="#1e293b">Try Free Demo</text>
  <rect x="300" y="420" width="180" height="50" rx="25" fill="#3b82f6"/>
  <text x="330" y="452" font-family="Arial, sans-serif" font-size="16" font-weight="bold" fill="white">Get Started Free</text>
  <!-- Speech Analysis Card -->
  <rect x="700" y="180" width="400" height="350" rx="20" fill="white" stroke="#e2e8f0" stroke-width="2"/>
  <rect x="700" y="180" width="400" height="350" rx="20" fill="url(#card)" opacity="0.1"/>
  <text x="740" y="240" font-family="Arial, sans-serif" font-size="24" font-weight="bold" fill="#1e293b">Speech Analysis</text>
  <circle cx="1060" cy="225" r="8" fill="#22c55e"/>
  <text x="1000" y="230" font-family="Arial, sans-serif" font-size="14" fill="#64748b">Recording</text>
  <!-- Metrics -->
  <text x="740" y="290" font-family="Arial, sans-serif" font-size="16" fill="#64748b">Clarity</text>
  <text x="1050" y="290" font-family="Arial, sans-serif" font-size="16" font-weight="bold" fill="#3b82f6">92%</text>
  <rect x="740" y="300" width="320" height="8" rx="4" fill="#e2e8f0"/>
  <rect x="740" y="300" width="294" height="8" rx="4" fill="#3b82f6"/>
  <text x="740" y="350" font-family="Arial, sans-serif" font-size="16" fill="#64748b">Fluency</text>
  <text x="1050" y="350" font-family="Arial, sans-serif" font-size="16" font-weight="bold" fill="#f97316">88%</text>
  <rect x="740" y="360" width="320" height="8" rx="4" fill="#e2e8f0"/>
  <rect x="740" y="360" width="282" height="8" rx="4" fill="#f97316"/>
  <text x="740" y="410" font-family="Arial, sans-serif" font-size="16" fill="#64748b">Confidence</text>
  <text x="1050" y="410" font-family="Arial, sans-serif" font-size="16" font-weight="bold" fill="#22c55e">95%</text>
  <rect x="740" y="420" width="320" height="8" rx="4" fill="#e2e8f0"/>
  <rect x="740" y="420" width="304" height="8" rx="4" fill="#22c55e"/>
  <!-- Improvement -->
  <text x="740" y="490" font-family="Arial, sans-serif" font-size="14" fill="#22c55e">↗ +12% improvement this week</text>
</svg>
